<svg width="28" height="30" viewBox="0 0 28 30" fill="none" xmlns="http://www.w3.org/2000/svg">
<line x1="0.963105" y1="28.1751" x2="26.1531" y2="28.1751" stroke="white" stroke-width="1.81" stroke-linecap="round"/>
<path d="M2.01953 15.2467L11.1519 19.8303C12.7036 20.5975 14.4124 20.5975 15.9641 19.8303L25.0965 15.2467M2.01953 19.9248L11.1519 24.5082C12.7036 25.2754 14.4124 25.2754 15.9641 24.5082L25.0965 19.9248M23.1628 5.86977L15.6187 2.45325C14.2801 1.84892 12.8279 1.84892 11.4893 2.45325L3.9452 5.86977C3.48737 6.07872 3.09023 6.47153 2.80909 6.99351C2.52795 7.5155 2.37684 8.14065 2.37684 8.78172C2.37684 9.4228 2.52795 10.0478 2.80909 10.5698C3.09023 11.0918 3.48737 11.4847 3.9452 11.6937L11.394 15.0681C12.7837 15.6989 14.2925 15.6989 15.6822 15.0681L23.131 11.6937C23.59 11.4891 23.9893 11.1 24.2734 10.5807C24.5574 10.0614 24.7119 9.43784 24.7154 8.79674C24.7189 8.15564 24.5713 7.52897 24.2929 7.00429C24.0146 6.47962 23.6196 6.08306 23.1628 5.86977Z" stroke="#FFFDF9" stroke-width="2.05756" stroke-linecap="round" stroke-linejoin="round"/>
</svg>
