<svg width="17" height="24" viewBox="0 0 17 24" fill="none" xmlns="http://www.w3.org/2000/svg">
<path d="M8.47824 8.44248C10.5334 8.44248 12.1995 6.77642 12.1995 4.72124C12.1995 2.66606 10.5334 1 8.47824 1C6.42306 1 4.757 2.66606 4.757 4.72124C4.757 6.77642 6.42306 8.44248 8.47824 8.44248Z" stroke="#FFFDF9" stroke-width="1.65388" stroke-linecap="round" stroke-linejoin="round"/>
<path d="M15.3286 19.3118C13.5424 23.3241 8.45512 22.9934 8.45512 22.9934C8.45512 22.9934 3.36445 23.3109 1.58157 19.3118C1.23651 18.5425 1.05811 17.7088 1.05811 16.8657C1.05811 16.0225 1.23651 15.189 1.58157 14.4197C3.36445 10.4073 8.45512 10.7381 8.45512 10.7381C8.45512 10.7381 13.5424 10.4206 15.3286 14.4197C15.6736 15.189 15.8521 16.0225 15.8521 16.8657C15.8521 17.7088 15.6736 18.5425 15.3286 19.3118Z" stroke="#FFFDF9" stroke-width="1.65388" stroke-linecap="round" stroke-linejoin="round"/>
</svg>
