<svg width="26" height="26" viewBox="0 0 26 26" fill="none" xmlns="http://www.w3.org/2000/svg">
<path d="M20.6995 5.76041C20.9639 5.87193 21.2224 5.99709 21.4738 6.13534C21.5775 6.19063 21.678 6.25146 21.7751 6.31755C24.0106 7.71908 24.5783 10.4135 24.6483 12.7261C24.6483 13.0765 24.6483 13.4268 24.6483 13.7772V24.3377L20.0934 21.7063H17.3218C16.3915 21.8171 15.4555 21.8721 14.5187 21.871C13.5153 21.8793 12.5125 21.8243 11.516 21.7063C9.03878 21.405 6.61052 20.6272 5.36666 18.8332M20.1844 5.06315C19.6511 4.33026 18.9557 3.73066 18.1522 3.31123C16.6532 2.55602 15.0192 2.10583 13.3449 1.98678C12.5495 1.90969 11.6702 1.86068 10.7557 1.85718C8.52724 1.85718 6.1131 2.10244 4.17898 3.1641C4.07535 3.21939 3.97463 3.28021 3.87753 3.34631C1.64209 4.74784 1.07457 7.4423 1.00449 9.75483C1.00449 10.1052 0.98687 10.4556 0.98687 10.806V21.37L5.54185 18.7386C5.54185 18.7386 10.2195 18.8998 11.1305 18.9033C12.1339 18.9116 13.1368 18.8566 14.1333 18.7386C17.3568 18.3497 20.4787 17.1444 21.0744 13.9594C21.3038 12.724 21.421 11.4703 21.4247 10.2138C21.4247 8.31819 21.1164 6.3876 20.1844 5.06315Z" stroke="white" stroke-width="1.75192" stroke-linecap="round" stroke-linejoin="round"/>
</svg>
