<svg width="11" height="12" viewBox="0 0 11 12" fill="none" xmlns="http://www.w3.org/2000/svg">
<path d="M6.64339 1.64215C7.25301 0.673042 8.43413 0.910756 9.123 1.62858C9.81187 2.34641 9.914 3.41936 9.19617 4.10823M9.19617 4.10823C9.63656 5.28036 9.63656 6.57249 9.19617 7.74462C8.06837 10.7135 4.85568 10.4788 4.85568 10.4788C4.85568 10.4788 1.64298 10.7135 0.515183 7.74462C0.0759034 6.57229 0.0758976 5.28055 0.515177 4.10822M9.19617 4.10823C8.06837 1.13938 4.85568 1.37561 4.85568 1.37561C4.85568 1.37561 1.64297 1.13937 0.515177 4.10822M3.06185 1.64423C2.29982 0.825418 1.22689 0.855918 0.539541 1.57375C-0.147806 2.29157 -0.202651 3.41935 0.515177 4.10822M7.53065 9.7972L8.4509 11M2.18188 9.79792L1.26042 11M4.85566 3.84915V5.13849C4.85582 5.38395 4.91241 5.62611 5.02101 5.84623C5.12962 6.06635 5.28732 6.25857 5.48202 6.40804L6.77293 7.39714" stroke="#FFFDF9" stroke-width="0.762026" stroke-linecap="round" stroke-linejoin="round"/>
</svg>
