<svg width="26" height="27" viewBox="0 0 26 27" fill="none" xmlns="http://www.w3.org/2000/svg">
<path d="M1.01983 15.163L10.1521 19.7465C11.7039 20.5137 13.4127 20.5137 14.9644 19.7465L24.0967 15.163M1.01983 19.8411L10.1521 24.4245C11.7039 25.1917 13.4127 25.1917 14.9644 24.4245L24.0967 19.8411M22.1631 5.78603L14.619 2.36951C13.2804 1.76518 11.8282 1.76518 10.4896 2.36951L2.9455 5.78603C2.48767 5.99498 2.09053 6.38779 1.80939 6.90977C1.52824 7.43176 1.37714 8.05691 1.37714 8.69798C1.37714 9.33906 1.52824 9.96408 1.80939 10.4861C2.09053 11.008 2.48767 11.401 2.9455 11.6099L10.3943 14.9844C11.784 15.6151 13.2928 15.6151 14.6825 14.9844L22.1313 11.6099C22.5903 11.4054 22.9896 11.0163 23.2737 10.497C23.5577 9.97768 23.7122 9.3541 23.7157 8.713C23.7192 8.0719 23.5716 7.44523 23.2932 6.92055C23.0149 6.39588 22.6198 5.99932 22.1631 5.78603Z" stroke="#FFFDF9" stroke-width="2.05756" stroke-linecap="round" stroke-linejoin="round"/>
</svg>
