<svg width="17" height="24" viewBox="0 0 17 24" fill="none" xmlns="http://www.w3.org/2000/svg">
<path d="M8.47842 8.44248C10.5336 8.44248 12.1997 6.77642 12.1997 4.72124C12.1997 2.66606 10.5336 1 8.47842 1C6.42324 1 4.75718 2.66606 4.75718 4.72124C4.75718 6.77642 6.42324 8.44248 8.47842 8.44248Z" stroke="#FFFDF9" stroke-width="1.65388" stroke-linecap="round" stroke-linejoin="round"/>
<path d="M15.3288 19.3118C13.5426 23.3241 8.4553 22.9934 8.4553 22.9934C8.4553 22.9934 3.36464 23.3109 1.58175 19.3118C1.23669 18.5425 1.05829 17.7088 1.05829 16.8657C1.05829 16.0225 1.23669 15.189 1.58175 14.4197C3.36464 10.4073 8.4553 10.7381 8.4553 10.7381C8.4553 10.7381 13.5426 10.4206 15.3288 14.4197C15.6738 15.189 15.8522 16.0225 15.8522 16.8657C15.8522 17.7088 15.6738 18.5425 15.3288 19.3118Z" stroke="#FFFDF9" stroke-width="1.65388" stroke-linecap="round" stroke-linejoin="round"/>
</svg>
