<svg width="21" height="22" viewBox="0 0 21 22" fill="none" xmlns="http://www.w3.org/2000/svg">
<path d="M12.5538 13.4143L15.286 15.4409C15.5297 15.6218 15.6914 15.892 15.7358 16.1922C15.7802 16.4924 15.7035 16.7979 15.5226 17.0416C15.3417 17.2852 15.0714 17.447 14.7712 17.4913C14.4711 17.5357 14.1656 17.459 13.922 17.2781C13.7928 17.181 13.6852 17.0583 13.6057 16.9176L11.9502 13.9445C11.9049 13.8624 11.889 13.7674 11.9051 13.675C11.9213 13.5827 11.9684 13.4986 12.0389 13.4368C12.1093 13.3749 12.1987 13.3389 12.2923 13.3348C12.386 13.3308 12.4782 13.3588 12.5538 13.4143Z" stroke="#EC888D" stroke-width="1.2241" stroke-linecap="round" stroke-linejoin="round"/>
<circle cx="8.37135" cy="8.54168" r="5.93182" transform="rotate(-41.2978 8.37135 8.54168)" stroke="#EC888D" stroke-width="1.31818"/>
</svg>
