<svg width="15" height="12" viewBox="0 0 15 12" fill="none" xmlns="http://www.w3.org/2000/svg">
<path d="M2.94163 11V6.37355C2.94163 6.28969 2.95813 6.20664 2.99026 6.12918C3.02238 6.05172 3.06947 5.98138 3.12881 5.92217C3.18815 5.86295 3.25857 5.81602 3.33606 5.7841C3.41355 5.75218 3.49657 5.73587 3.58036 5.73612H4.50261C4.5864 5.73587 4.66943 5.75218 4.74691 5.7841C4.8244 5.81602 4.89482 5.86295 4.95416 5.92217C5.0135 5.98138 5.06059 6.05172 5.09272 6.12918C5.12484 6.20664 5.14134 6.28969 5.14134 6.37355V11M6.97634 11V3.88633C6.97634 3.71678 7.04364 3.55415 7.16343 3.43425C7.28322 3.31436 7.44571 3.247 7.61512 3.247H8.53922C8.62301 3.247 8.70599 3.26357 8.78338 3.29572C8.86077 3.32787 8.93105 3.37496 8.99022 3.43435C9.04938 3.49374 9.09627 3.56427 9.12817 3.64182C9.16006 3.71938 9.17635 3.80247 9.17611 3.88633V11M10.7541 11V1.63928C10.7541 1.46973 10.8214 1.30714 10.9412 1.18725C11.0609 1.06736 11.2234 1 11.3928 1H12.3169C12.4864 1 12.6488 1.06736 12.7686 1.18725C12.8884 1.30714 12.9557 1.46973 12.9557 1.63928V11M14.3447 11H1.34473" stroke="#EC888D" stroke-linecap="round" stroke-linejoin="round"/>
</svg>
